<?xml version="1.0" encoding="UTF-8"?>
<svg id="Layer_1" data-name="Layer 1" xmlns="http://www.w3.org/2000/svg" viewBox="0 0 300 200">
  <defs>
    <style>
      .cls-1 {
        fill: #0e1c04;
      }

      .cls-1, .cls-2 {
        stroke-width: 0px;
      }

      .cls-2 {
        fill: #000;
      }
    </style>
  </defs>
  <path class="cls-1" d="M150,199.5C67.57,199.5.5,154.86.5,100S67.57.5,150,.5s149.5,44.64,149.5,99.5-67.07,99.5-149.5,99.5Z"/>
  <path class="cls-2" d="M150,1c82.16,0,149,44.41,149,99s-66.84,99-149,99S1,154.59,1,100,67.84,1,150,1M150,0C67.16,0,0,44.77,0,100s67.16,100,150,100,150-44.77,150-100S232.84,0,150,0h0Z"/>
</svg>