<?xml version="1.0" encoding="UTF-8"?>
<svg id="Layer_1" data-name="Layer 1" xmlns="http://www.w3.org/2000/svg" viewBox="0 0 1623.22 998.69">
  <defs>
    <style>
      .cls-1 {
        fill: #0e1c04;
        stroke: #000;
        stroke-miterlimit: 10;
      }
    </style>
  </defs>
  <path class="cls-1" d="M893.56,306.66c-93.8-59.26-230.78-135.63-407-200C323.7,47.17,231.35,14.75,174.56,58.66c-77.75,60.1,3.81,191.53-30,430C105.74,762.41-36.43,833.89,9.56,920.66c80.09,151.14,576.29,56.75,902-74,398.37-159.92,546.44-376.13,579-426,108.11-165.6,160.16-365.37,117-393-58.81-37.65-301.17,240.09-340,207-17.43-14.85,31.44-70.72,7-137-18.71-50.73-72.53-86.26-126-95-75.55-12.35-130.6,32-139,39"/>
</svg>