<svg width="592" height="501" viewBox="0 0 592 501" fill="none" xmlns="http://www.w3.org/2000/svg">
<path d="M0 250.194C0 488.131 0.0755596 500.372 1.36007 499.994C2.04011 499.843 42.3134 487.829 90.8226 473.322L179.076 447.027V231.531V15.9593L175.147 15.506C168.8 14.826 3.5513 0.0162753 1.73787 0.0162753H0V250.194Z" fill="#394b33"/>
<path d="M499.825 7.93379C452.902 12.2407 414.216 15.792 413.914 15.792C413.536 15.8676 413.309 112.886 413.309 231.515C413.309 436.281 413.385 447.237 414.669 447.615C415.349 447.842 454.867 459.553 502.469 473.759C550.072 487.888 589.59 499.676 590.345 499.902C591.554 500.28 591.63 488.039 591.63 250.178V3.79918e-05L588.456 0.0755976C586.643 0.151157 546.823 3.70246 499.825 7.93379Z" fill="#394b33"/>
<path d="M198.726 89.9284V153.398H239.528C280.028 153.398 280.33 153.398 280.33 151.887C280.33 150.3 200.313 26.4583 199.33 26.4583C198.953 26.4583 198.726 55.0199 198.726 89.9284Z" fill="#394b33"/>
<path d="M385.893 34.921C336.628 110.707 310.56 151.207 310.56 152.189C310.56 153.323 314.187 153.398 351.362 153.398H392.164V89.9284C392.164 55.0199 392.013 26.4583 391.786 26.4583C391.635 26.4583 388.991 30.3119 385.893 34.921Z" fill="#394b33"/>
<path d="M198.726 226.699V281.102H295.442H392.158V226.699V172.296H295.442H198.726V226.699Z" fill="#394b33"/>
<path d="M216.478 318.957C226.452 328.931 248.365 350.692 265.214 367.24L295.892 397.312L342.285 349.71C367.824 323.491 388.905 301.73 388.981 301.427C389.132 301.05 346.29 300.747 293.776 300.747H198.344L216.478 318.957Z" fill="#394b33"/>
</svg>
