<?xml version="1.0" encoding="UTF-8"?>
<svg id="Layer_1" data-name="Layer 1" xmlns="http://www.w3.org/2000/svg" viewBox="0 0 300 200">
  <defs>
    <style>
      .cls-1 {
        fill: #0e1c04;
      }

      .cls-1, .cls-2 {
        stroke-width: 0px;
      }

      .cls-2 {
        fill: #000;
      }
    </style>
  </defs>
  <rect class="cls-1" x=".5" y=".5" width="299" height="199" rx="29.5" ry="29.5"/>
  <path class="cls-2" d="M270,1c15.99,0,29,13.01,29,29v140c0,15.99-13.01,29-29,29H30c-15.99,0-29-13.01-29-29V30C1,14.01,14.01,1,30,1h240M270,0H30C13.5,0,0,13.5,0,30v140c0,16.5,13.5,30,30,30h240c16.5,0,30-13.5,30-30V30c0-16.5-13.5-30-30-30h0Z"/>
</svg>