<?xml version="1.0" encoding="UTF-8"?>
<svg id="Layer_1" data-name="Layer 1" xmlns="http://www.w3.org/2000/svg" viewBox="0 0 1931.32 1096.5">
  <defs>
    <style>
      .cls-1 {
        stroke-width: 0px;
      }

      .cls-1, .cls-2 {
        fill: #0E1C04;
      }

      .cls-2 {
        stroke: #000;
        stroke-miterlimit: 10;
      }
    </style>
  </defs>
  <path class="cls-2" d="M.82,230.85c1082.55-.13,1930.39,1.89,1930,8.76,0,.11-.25.9-.53.89-2.12-.07-3.24-44.39-3.88-75.21-.78-37.1-1.64-91.59-1.88-164.79-641.23,0-1282.47,0-1923.7,0v230.35Z"/>
  <path class="cls-1" d="M1930.82.5h-302.48s4.92,122.91,4.92,122.91c-1.84,52.89-10.02,139.1-46.64,235.62-117.83,310.61-400.85,387.13-389.31,500.82,7.53,74.12,140.56,167.16,729.95,236.64"/>
  <path class="cls-2" d="M.32,1080c67.71-57.89,165.05-139.41,285-234,332.51-262.21,409.72-286.52,467-263,25.12,10.31,62.42,83.35,136,229,98.64,195.26,114.02,245.22,93,268-11.24,12.18-36.88,20.93-102,0"/>
</svg>