<?xml version="1.0" encoding="UTF-8"?>
<svg id="Layer_1" data-name="Layer 1" xmlns="http://www.w3.org/2000/svg" viewBox="0 0 95.11 90.45">
  <defs>
    <style>
      .cls-1 {
        fill: #0e1c04;
      }

      .cls-1, .cls-2 {
        stroke-width: 0px;
      }

      .cls-2 {
        fill: #000;
      }
    </style>
  </defs>
  <polygon class="cls-1" points="36.69 55.4 1.54 55.4 29.98 34.74 19.11 1.31 47.55 21.97 75.99 1.31 65.13 34.74 93.57 55.4 58.42 55.4 47.55 88.83 36.69 55.4"/>
  <path class="cls-2" d="M75.04,2.62l-10.27,31.62-.22.69.59.43,26.9,19.54h-33.98l-.22.69-10.27,31.62-10.27-31.62-.22-.69H3.08l26.9-19.54.59-.43-.22-.69L20.07,2.62l26.9,19.54.59.43.59-.43L75.04,2.62M76.94,0l-29.39,21.35L18.16,0l11.23,34.55L0,55.9h36.33l11.23,34.55,11.23-34.55h36.33l-29.39-21.35L76.94,0h0Z"/>
</svg>